<svg width="121" height="161" viewBox="0 0 121 161" fill="none" xmlns="http://www.w3.org/2000/svg">
<g clip-path="url(#clip0)">
<path d="M17.87 52.111L8.885 45.194L20.086 45.032L20.711 43.065L10.396 35.721C8.804 34.586 7.656 33.531 7.071 32.334L7.031 32.314L5.842 36.127L5.882 36.147C7.072 35.235 8.723 35.275 10.839 36.777L16.822 41.016L8.985 41.096C7.011 41.096 5.621 40.549 4.895 39.373L4.855 39.353L2.821 45.843L2.861 45.863C4.049 45.276 5.621 45.194 7.293 45.194H7.938L14.203 49.982L6.205 49.962C4.231 49.962 2.821 49.454 2.095 48.257L2.035 48.277L0 54.77L0.04 54.79C1.229 54.202 2.78 54.12 4.473 54.12H17.245L17.87 52.112V52.111ZM14.344 30.995L20.026 34.849C21.819 36.066 22.403 36.756 23.37 38.196L23.41 38.216L26.634 33.429L26.594 33.409C24.941 33.064 23.994 32.739 22.262 31.563L16.581 27.689C14.848 26.512 14.203 25.741 13.256 24.321L13.216 24.301L9.993 29.088L10.033 29.108C11.685 29.474 12.551 29.758 14.344 30.995ZM21.033 21.907L25.606 27.04C27.036 28.642 27.46 29.494 28.024 31.096L28.044 31.137L36.566 23.469L34.047 18.885L33.826 19.007C34.128 21.015 34.229 24.646 33.121 25.721L31.348 27.526L23.994 19.25C22.584 17.668 22.161 16.816 21.577 15.193L21.557 15.153L17.286 19.007L17.306 19.047C18.836 19.797 19.602 20.285 21.033 21.907ZM34.49 10.71L37.13 17.526C37.875 19.453 37.976 20.366 37.916 22.009L37.936 22.049L44.02 19.656C49.742 17.404 51.958 13.368 50.064 8.459C48.17 3.529 43.657 2.191 38.117 4.382C35.377 5.457 34.229 6.004 32.073 6.856L32.093 6.896C33.222 8.073 33.745 8.743 34.491 10.71H34.49ZM38.238 4.909C41.945 3.388 44.242 5.355 46.176 10.305C47.868 14.686 47.767 17.567 43.879 19.088C43.779 19.128 42.932 19.433 42.227 19.636L36.787 5.578C37.352 5.315 38.077 4.97 38.238 4.908V4.909ZM63.643 16.836C66.846 17.141 69.868 16.106 70.211 12.476C70.513 9.29 68.397 7.708 66.322 6.369C64.368 5.173 62.474 4.179 62.636 2.394C62.756 1.095 63.804 0.343999 65.134 0.466999C66.786 0.628999 68.176 2.17 69.626 5.233L69.868 5.193L69.687 0.932999C68.5948 0.474419 67.4405 0.180548 66.262 0.0609992C63.139 -0.243001 60.097 0.709999 59.775 4.098C59.493 7.059 61.628 8.52 63.764 9.878C65.658 11.075 67.43 12.11 67.249 14.078C67.109 15.498 66.061 16.552 64.288 16.39C62.313 16.187 60.782 14.504 59.009 10.75L58.788 10.791L58.928 15.356C60.098 16.046 61.789 16.654 63.643 16.836ZM78.41 20.995C82.742 23.105 87.718 21.482 89.793 17.141C91.868 12.82 90.095 7.83 85.763 5.721C81.413 3.591 76.436 5.294 74.361 9.615C72.266 13.955 74.059 18.885 78.411 20.995H78.41ZM78.19 11.5C80.184 7.342 82.743 4.847 85.543 6.206C88.343 7.566 87.941 11.136 85.946 15.294C83.932 19.452 81.393 21.906 78.633 20.568C75.873 19.188 76.195 15.658 78.19 11.501V11.5ZM91.546 30.61C94.85 33.977 97.61 32.8 100.289 30.143L103.936 26.513C105.507 24.95 106.595 24.686 108.65 24.443V24.383L105.608 21.299L105.568 21.339C105.407 23.449 105.044 24.484 103.473 26.066L99.705 29.798C97.529 31.968 95.031 33.044 92.915 30.894C91.345 29.291 91.223 27.202 93.984 24.444L98.094 20.346C99.624 18.824 100.531 18.296 102.022 17.729L102.062 17.689L97.992 13.55L97.952 13.57C97.267 15.153 96.864 15.944 95.313 17.485L91.344 21.441C88.181 24.585 88.846 27.851 91.546 30.61ZM101.921 35.295C100.027 36.289 99.101 36.492 97.408 36.655L97.368 36.675L102.647 46.878L107.683 45.539L107.623 45.296C105.628 45.093 102.103 44.302 101.317 42.963L100.007 40.793L109.799 35.661C111.672 34.667 112.599 34.464 114.311 34.301L114.352 34.281L111.712 29.17L111.672 29.19C110.564 30.508 109.899 31.117 107.985 32.131L101.921 35.295ZM120.758 51.625C120.134 48.521 118.341 45.885 115.017 46.553C112.115 47.142 111.35 49.637 110.685 52.091C110.101 54.261 109.637 56.27 107.703 56.675C106.313 56.96 105.004 56.25 104.641 54.505C104.238 52.537 105.407 50.59 108.449 47.77L108.348 47.568L104.037 49.028C103.734 50.347 103.654 52.152 104.017 53.978C104.661 57.162 106.535 59.758 110.081 59.028C113.203 58.4 114.07 55.905 114.734 53.511C115.299 51.28 115.681 49.171 117.434 48.805C118.703 48.541 119.731 49.333 119.993 50.651C120.315 52.294 119.267 54.059 116.769 56.371L116.89 56.594L120.879 55.174C121.04 54.079 121 52.842 120.758 51.624V51.625ZM6.749 86.9L16.198 87.143L16.238 85.967C15.432 85.602 14.566 84.607 14.566 83.187L13.438 83.167C13.398 84.364 13.881 85.358 14.344 85.764L6.79 85.56L6.75 86.9H6.749ZM11.161 99.01C14.244 99.091 16.077 97.935 16.158 95.48C16.218 93.005 14.445 91.768 11.363 91.687C8.28 91.606 6.447 92.762 6.366 95.217C6.286 97.691 8.079 98.929 11.161 99.01ZM11.322 93.005C13.559 93.066 15.11 93.635 15.05 95.44C15.01 97.265 13.438 97.732 11.201 97.671C8.965 97.611 7.414 97.062 7.474 95.237C7.514 93.432 9.086 92.945 11.322 93.006V93.005ZM15.855 107.022C15.915 104.548 14.143 103.31 11.061 103.229C7.978 103.148 6.145 104.304 6.064 106.759C6.004 109.233 7.777 110.471 10.859 110.552C13.941 110.633 15.795 109.497 15.855 107.022ZM7.152 106.799C7.192 104.994 8.764 104.507 11 104.568C13.236 104.629 14.788 105.197 14.727 107.002C14.687 108.828 13.116 109.294 10.879 109.233C8.663 109.172 7.112 108.625 7.152 106.799ZM10.9 121.932C8.905 122.5 8.603 123.818 8.905 124.913C9.207 126.009 10.154 126.982 12.148 126.435C14.143 125.867 14.445 124.548 14.123 123.433C13.841 122.358 12.893 121.384 10.899 121.932H10.9ZM11.907 125.502C10.799 125.806 10.033 125.603 9.771 124.711C9.509 123.798 10.053 123.23 11.181 122.905C12.289 122.601 13.055 122.804 13.317 123.696C13.559 124.589 13.015 125.177 11.907 125.502ZM17.99 121.526L7.253 118.321L7.555 119.416L18.293 122.621L17.991 121.526H17.99ZM13.377 114.507C11.383 115.075 11.081 116.394 11.403 117.489C11.705 118.585 12.652 119.558 14.646 119.011C16.641 118.443 16.943 117.124 16.641 116.008C16.319 114.913 15.371 113.939 13.377 114.507ZM15.775 116.252C16.037 117.165 15.493 117.733 14.365 118.057C13.256 118.362 12.491 118.159 12.229 117.266C11.967 116.353 12.511 115.785 13.639 115.461C14.747 115.136 15.513 115.339 15.775 116.252ZM25.123 134.65L23.289 132.317L15.875 138.22L16.701 139.255L19.461 137.064L20.469 138.342C21.979 140.269 23.592 140.735 25.163 139.498C26.735 138.261 26.633 136.577 25.123 134.65ZM24.317 138.443C23.35 139.214 22.483 139.113 21.335 137.632L20.348 136.374L23.249 134.062L24.236 135.319C25.385 136.8 25.284 137.672 24.316 138.443H24.317ZM34.712 143.819L31.106 148.505C29.938 150.006 28.93 150.087 27.681 149.113C26.432 148.119 26.251 147.125 27.419 145.624L31.046 140.938L29.998 140.127L26.251 144.995C24.74 146.943 25.203 148.647 26.996 150.046C28.789 151.446 30.542 151.466 32.033 149.519L35.78 144.65L34.712 143.819ZM42.187 147.937L39.467 146.76L35.72 155.523L36.929 156.05L38.319 152.785L39.971 153.495L40.978 157.795L42.468 158.444L41.341 153.839C42.751 154.103 43.899 153.616 44.504 152.196C45.31 150.35 44.423 148.91 42.187 147.937ZM43.275 151.649C42.791 152.785 41.945 153.109 40.253 152.359L38.782 151.73L40.252 148.302L41.723 148.931C43.436 149.701 43.758 150.513 43.275 151.649ZM48.13 159.945L54.355 161L54.537 159.884L49.621 159.053L50.145 155.909L54.215 156.598L54.395 155.483L50.326 154.793L50.81 151.872L55.725 152.704L55.907 151.608L49.681 150.553L48.131 159.945H48.13ZM72.487 154.691L71.379 154.894C71.56 155.827 71.52 156.659 71.299 157.349L68.76 155.28C69.848 154.306 70.533 153.495 70.332 152.379C70.09 151.101 68.922 150.553 67.652 150.797C66.061 151.101 65.416 152.176 65.637 153.332C65.799 154.164 66.504 154.813 67.229 155.401C66.101 156.395 65.134 157.41 65.376 158.769C65.637 160.249 67.027 160.959 68.861 160.615C70.09 160.391 70.976 159.763 71.581 158.992L72.528 159.763L73.978 159.499L72.145 158.018C72.5603 156.961 72.6785 155.81 72.487 154.691ZM66.786 153.089C66.645 152.359 67.028 151.892 67.813 151.73C68.498 151.608 69.043 151.953 69.163 152.643C69.284 153.271 69.123 153.718 68.015 154.691C67.35 154.144 66.886 153.718 66.785 153.089H66.786ZM68.8 159.58C67.511 159.823 66.746 159.357 66.584 158.444C66.403 157.491 67.007 156.842 67.954 155.99L70.794 158.363C70.3033 159.002 69.5926 159.436 68.8 159.58ZM85.22 143.717L89.29 150.33L81.432 146.091L80.062 146.943L85.038 155.036L86.106 154.367L82.036 147.754L89.894 151.994L91.264 151.142L86.287 143.048L85.22 143.717ZM91.425 138.342L95.817 147.511L96.764 146.517L95.696 144.427L98.597 141.364L100.733 142.338L101.7 141.303L92.392 137.328L91.425 138.342ZM97.59 140.918L95.192 143.433L92.855 138.788L97.59 140.918ZM100.511 127.834L99.524 127.226L95.777 133.413L96.744 134.001L98.274 131.486L105.386 135.847L106.071 134.711L98.98 130.35L100.511 127.834ZM108.912 119.437L103.11 117.51L102.707 118.767L108.308 120.633C110.101 121.222 110.524 122.155 110.02 123.676C109.516 125.197 108.65 125.705 106.837 125.096L101.236 123.25L100.833 124.508L106.635 126.435C108.972 127.206 110.403 126.212 111.108 124.041C111.793 121.871 111.229 120.207 108.912 119.437ZM107.24 106.718C105.245 106.576 104.198 107.895 104.037 110.349L103.835 113.311L113.264 113.939L113.344 112.621L109.839 112.398L109.96 110.592L113.647 108.199L113.747 106.576L109.819 109.172C109.597 107.753 108.771 106.819 107.24 106.718ZM108.731 112.317L105.044 112.073L105.145 110.471C105.266 108.584 105.91 108.016 107.159 108.097C108.368 108.178 108.952 108.868 108.832 110.714L108.731 112.317ZM104.339 99.639L113.707 103.472L113.747 102.113L111.571 101.282L111.672 97.062L113.888 96.332L113.929 94.912L104.379 98.239L104.339 99.639ZM110.584 97.387L110.504 100.856L105.689 98.99L110.584 97.387ZM112.921 89.395L104.601 89.172L104.561 90.51L114.009 90.754L114.17 84.871L113.042 84.851L112.921 89.395ZM63.844 74.932C64.005 73.897 64.146 72.984 64.207 72.599C61.084 71.159 58.203 69.962 56.41 69.272C56.733 70.347 58.103 72.619 63.844 74.932ZM67.49 55.215C67.068 56.128 67.531 58.663 66.282 59.738C65.032 60.814 64.227 60.935 64.227 60.935L65.537 72.092C68.538 73.492 71.661 75.054 74.28 76.575C69.626 53.004 69.667 53.025 69.667 53.025C69.667 53.025 67.914 54.302 67.491 55.215H67.49ZM59.634 100.247C60.077 100.024 60.379 99.7 60.5 99.517C59.8939 97.9674 59.3029 96.412 58.727 94.851L57.237 95.845C57.861 98.036 58.929 100.247 59.634 100.247ZM64.267 95.338C63.985 94.385 63.502 92.762 62.957 90.937C62.575 91.18 62.071 91.484 61.749 91.687C61.91 92.945 62.676 95.48 63.26 95.927C63.623 95.764 63.965 95.602 64.267 95.338Z" fill="black"/>
<path d="M55.625 98.888C55.685 99.111 55.705 99.334 55.705 99.558C56.652 100.125 57.519 100.43 58.264 100.491C57.095 99.131 56.35 96.434 56.189 95.744C56.129 95.541 56.229 95.318 56.39 95.196L58.365 93.858C57.881 92.518 57.438 91.261 57.176 90.388C56.33 87.548 51.576 74.019 50.709 72.478C50.205 71.585 49.399 70.997 48.654 70.956C48.09 70.936 47.566 71.22 47.123 71.808C46.337 72.903 45.934 76.128 46.257 78.766C46.519 78.867 46.78 78.989 47.042 79.131C48.876 80.165 51.394 82.761 53.026 89.192C54.275 94.06 54.92 96.372 55.262 97.63C55.464 98.239 55.564 98.604 55.625 98.888ZM53.388 94.527L51.676 95.947C52.119 97.813 53.066 100.47 53.831 100.876C53.871 100.896 53.891 100.896 53.912 100.896C54.093 100.795 54.255 100.693 54.375 100.531C54.678 100.166 54.778 99.659 54.637 99.111C54.577 98.827 54.477 98.482 54.315 97.894C54.134 97.204 53.832 96.17 53.388 94.527Z" fill="black"/>
<path d="M49.702 70.185C50.447 70.51 51.112 71.139 51.595 71.97C52.583 73.695 57.418 87.59 58.163 90.105C58.586 91.525 59.553 94.141 60.339 96.231C60.581 96.271 61.346 96.373 62.233 96.211C61.225 94.771 60.742 91.789 60.722 91.444C60.7202 91.3572 60.7393 91.2713 60.7778 91.1935C60.8163 91.1157 60.8729 91.0483 60.943 90.997C61.246 90.794 62.153 90.227 62.656 89.922C61.426 85.784 60.016 81.098 59.996 81.017C59.956 80.916 59.976 80.814 60.016 80.713C56.793 78.36 53.932 74.587 55.343 68.42V68.4C55.343 68.38 55.363 68.36 55.363 68.34L55.423 68.218L55.483 68.157C55.503 68.117 55.544 68.096 55.584 68.076L55.604 68.056C55.624 68.035 55.644 68.035 55.664 68.035C55.705 68.015 55.725 68.015 55.766 67.995H55.947C55.967 67.995 55.967 68.015 55.987 68.015H56.027C56.39 68.157 56.833 68.319 57.297 68.502C57.217 68.258 57.156 68.055 57.075 67.832C56.571 66.473 55.967 65.601 55.202 65.155C55.162 65.135 55.121 65.135 55.081 65.114C54.315 64.729 53.368 64.708 52.159 65.074C49.479 65.864 49.641 69.374 49.702 70.185Z" fill="black"/>
<path d="M74.603 77.914C71.863 76.271 68.418 74.546 65.153 73.025C65.053 73.593 64.892 74.628 64.731 75.703C64.717 75.7769 64.6883 75.8472 64.6468 75.9099C64.6052 75.9726 64.5516 76.0263 64.489 76.068C64.4079 76.1092 64.3179 76.1298 64.227 76.128C64.167 76.128 64.107 76.108 64.046 76.088C59.07 74.181 56.914 72.193 55.967 70.713C55.463 78.177 62.273 81.159 65.717 82.64L66.222 82.863C66.3305 82.9123 66.4182 82.9983 66.4698 83.1058C66.5213 83.2133 66.5334 83.3355 66.504 83.451C64.952 89.131 68.196 90.916 68.236 90.937C68.355 91.0011 68.4445 91.1087 68.4859 91.2373C68.5273 91.3659 68.5173 91.5056 68.458 91.627C68.378 91.809 68.196 91.89 68.015 91.89C67.9307 91.8894 67.8478 91.8688 67.773 91.83C67.612 91.748 63.945 89.74 65.436 83.614L65.315 83.574C64.227 83.107 62.716 82.437 61.165 81.484C61.971 84.161 64.63 93.006 65.295 95.338C65.355 95.521 65.295 95.703 65.174 95.845C64.6837 96.333 64.092 96.7072 63.441 96.941C63.421 96.941 63.401 96.961 63.401 96.961C62.7159 97.207 61.9929 97.3305 61.265 97.326C61.065 97.326 60.883 97.326 60.722 97.306C61.185 98.503 61.507 99.375 61.527 99.396C61.587 99.517 61.567 99.679 61.507 99.801C61.487 99.841 60.943 100.977 59.553 101.383C59.2131 101.483 58.8601 101.531 58.506 101.525C57.599 101.525 56.571 101.201 55.483 100.592C55.403 100.815 55.282 101.018 55.141 101.201C54.94 101.464 54.678 101.647 54.375 101.809C54.355 101.829 54.335 101.85 54.295 101.87H54.275C53.8636 102.078 53.4054 102.176 52.945 102.154C51.716 102.113 48.674 101.363 47.203 95.176C45.934 89.902 45.37 89.01 44.604 88.198C44.423 87.995 44.423 87.671 44.624 87.488C44.826 87.306 45.148 87.306 45.33 87.508C46.297 88.543 46.901 89.618 48.19 94.953C49.38 99.883 51.474 100.937 52.623 101.119C51.413 99.476 50.628 95.967 50.628 95.906C50.6078 95.8148 50.612 95.7199 50.6403 95.6308C50.6685 95.5418 50.7199 95.4618 50.789 95.399L53.106 93.472C52.7633 92.1384 52.4143 90.8063 52.059 89.476C50.849 84.729 48.875 81.362 46.539 80.023C45.189 79.253 44.101 79.333 43.416 79.537C43.0766 79.6329 42.7609 79.7984 42.489 80.023C42.066 80.348 41.744 80.835 41.482 81.463C41.361 81.748 41.26 82.073 41.179 82.437C41.159 82.498 41.139 82.539 41.139 82.6C40.857 83.938 40.797 85.723 40.938 88.036C41.058 90.166 41.582 92.924 42.448 96.332C43.557 100.775 45.228 106.292 47.344 112.945C51.212 125.096 59.372 123.453 59.452 123.433C59.583 123.407 59.7188 123.433 59.8315 123.505C59.9441 123.576 60.0248 123.688 60.057 123.818C60.0829 123.949 60.0577 124.085 59.9865 124.199C59.9153 124.312 59.8035 124.394 59.674 124.427C59.654 124.427 59.19 124.528 58.445 124.528C57.418 124.528 55.826 124.345 54.073 123.514C54.073 124.366 53.973 130.857 52.683 136.172C57.357 137.044 73.213 130.451 73.213 130.451L75.771 110.613C75.771 110.633 87.557 95.196 74.603 77.913V77.914ZM67.41 99.679C67.189 99.781 62.112 102.397 63.764 109.477C63.7788 109.542 63.7806 109.609 63.7694 109.675C63.7581 109.741 63.734 109.804 63.6984 109.86C63.6629 109.917 63.6165 109.966 63.5621 110.004C63.5076 110.043 63.4461 110.07 63.381 110.085C63.341 110.085 63.301 110.106 63.26 110.106C63.038 110.106 62.817 109.943 62.777 109.72C60.923 101.829 66.907 98.807 66.967 98.766C67.085 98.708 67.2211 98.699 67.3456 98.741C67.4702 98.7829 67.5731 98.8724 67.632 98.99C67.666 99.0492 67.6872 99.1148 67.6944 99.1826C67.7015 99.2505 67.6944 99.3191 67.6735 99.3841C67.6526 99.449 67.6184 99.5089 67.573 99.5599C67.5276 99.6108 67.4721 99.6517 67.41 99.68V99.679ZM62.776 35.275C61.206 36.188 56.753 38.541 59.976 46.838C60.802 48.968 61.588 50.55 61.628 53.004C61.668 55.459 60.621 59.779 64.005 59.678C67.39 59.576 65.415 55.661 66.685 53.917C67.955 52.193 68.357 52.598 68.7 49.333C69.062 46.067 70.613 47.852 70.271 43.369C69.908 38.886 69.566 37.608 68.397 35.985C67.229 34.362 64.347 34.362 62.777 35.275H62.776Z" fill="black"/>
</g>
<defs>
<clipPath id="clip0">
<rect width="121" height="161" fill="white"/>
</clipPath>
</defs>
</svg>
