<svg width="81" height="80" viewBox="0 0 81 80" fill="none" xmlns="http://www.w3.org/2000/svg">
<g clip-path="url(#clip0)">
<path d="M40.5 79.5C18.683 79.5 0.999999 61.815 0.999998 40C0.999997 18.185 18.684 0.499999 40.5 0.499998C62.315 0.499997 80 18.185 80 40C80 61.815 62.314 79.5 40.5 79.5Z" fill="black"/>
<path d="M50.77 34.074C50.6428 33.8607 50.4434 33.7 50.208 33.621C49.572 33.384 48.684 33.491 48.325 33.969C46.089 36.941 44.027 39.974 41.869 42.972C41.606 43.337 41.343 43.7 41.076 44.062C38.537 40.733 36.186 37.334 33.578 34.032C32.915 33.194 30.828 33.572 31.011 34.522C31.584 37.483 32.507 38.038 35.553 43.828C35.83 44.353 37.337 46.451 37.83 46.891C38.262 47.277 38.692 47.683 39.183 48.033C39.963 48.59 41.153 48.651 42.053 48.193C42.677 47.877 43.729 46.408 44.128 45.948C45.657 44.181 46.941 42.091 47.58 40.997C48.853 38.827 49.724 37.035 50.934 34.847C51.072 34.596 50.983 34.307 50.769 34.074L50.77 34.074Z" fill="white"/>
</g>
<defs>
<clipPath id="clip0">
<rect width="79" height="80" fill="white" transform="translate(0.5 79.5) rotate(-90)"/>
</clipPath>
</defs>
</svg>
